<?xml version="1.0" encoding="UTF-8" standalone="no"?>
<!DOCTYPE svg PUBLIC "-//W3C//DTD SVG 1.1//EN"
 "http://www.w3.org/Graphics/SVG/1.1/DTD/svg11.dtd">
<!-- Generated by graphviz version 2.40.1 (20161225.0304)
 -->
<!-- Title: dependencies Pages: 1 -->
<svg width="683pt" height="284pt"
 viewBox="0.00 0.00 683.00 284.00" xmlns="http://www.w3.org/2000/svg" xmlns:xlink="http://www.w3.org/1999/xlink">
<g id="graph0" class="graph" transform="scale(1 1) rotate(0) translate(4 280)">
<title>dependencies</title>
<polygon fill="#ffffff" stroke="transparent" points="-4,4 -4,-280 679,-280 679,4 -4,4"/>
<text text-anchor="start" x="316.5091" y="-42.4" font-family="sans-serif" font-weight="bold" font-size="14.00" fill="#000000">Legend</text>
<polygon fill="#ffffb3" stroke="transparent" points="103.5,-10 103.5,-30 123.5,-30 123.5,-10 103.5,-10"/>
<text text-anchor="start" x="127.129" y="-15.4" font-family="sans-serif" font-size="14.00" fill="#000000"> &#160;Declarations</text>
<polygon fill="#8dd3c7" stroke="transparent" points="216.5,-10 216.5,-30 236.5,-30 236.5,-10 216.5,-10"/>
<text text-anchor="start" x="240.2251" y="-15.4" font-family="sans-serif" font-size="14.00" fill="#000000"> &#160;Module</text>
<polygon fill="#80b1d3" stroke="transparent" points="302.5,-10 302.5,-30 322.5,-30 322.5,-10 302.5,-10"/>
<text text-anchor="start" x="326.2812" y="-15.4" font-family="sans-serif" font-size="14.00" fill="#000000"> &#160;Bootstrap</text>
<polygon fill="#fdb462" stroke="transparent" points="399.5,-10 399.5,-30 419.5,-30 419.5,-10 399.5,-10"/>
<text text-anchor="start" x="423.1732" y="-15.4" font-family="sans-serif" font-size="14.00" fill="#000000"> &#160;Providers</text>
<polygon fill="#fb8072" stroke="transparent" points="495.5,-10 495.5,-30 515.5,-30 515.5,-10 495.5,-10"/>
<text text-anchor="start" x="519.2258" y="-15.4" font-family="sans-serif" font-size="14.00" fill="#000000"> &#160;Exports</text>
<g id="clust1" class="cluster">
<title>cluster_SharedModule</title>
<polygon fill="none" stroke="#000000" stroke-dasharray="1,5" points="8,-70 8,-268 667,-268 667,-70 8,-70"/>
</g>
<g id="clust2" class="cluster">
<title>cluster_SharedModule_declarations</title>
<polygon fill="none" stroke="#000000" points="156,-78 156,-130 650,-130 650,-78 156,-78"/>
</g>
<g id="clust7" class="cluster">
<title>cluster_SharedModule_imports</title>
<polygon fill="none" stroke="#000000" points="20,-78 20,-130 148,-130 148,-78 20,-78"/>
</g>
<g id="clust8" class="cluster">
<title>cluster_SharedModule_exports</title>
<polygon fill="none" stroke="#000000" points="16,-208 16,-260 659,-260 659,-208 16,-208"/>
</g>
<!-- AddRowComponent -->
<g id="node1" class="node">
<title>AddRowComponent</title>
<polygon fill="#ffffb3" stroke="#000000" points="641.8823,-122 510.1177,-122 510.1177,-86 641.8823,-86 641.8823,-122"/>
<text text-anchor="middle" x="576" y="-99.8" font-family="Times,serif" font-size="14.00" fill="#000000">AddRowComponent</text>
</g>
<!-- SharedModule -->
<g id="node5" class="node">
<title>SharedModule</title>
<polygon fill="#8dd3c7" stroke="#000000" points="364.4231,-187 361.4231,-191 340.4231,-191 337.4231,-187 265.5769,-187 265.5769,-151 364.4231,-151 364.4231,-187"/>
<text text-anchor="middle" x="315" y="-164.8" font-family="Times,serif" font-size="14.00" fill="#000000">SharedModule</text>
</g>
<!-- AddRowComponent&#45;&gt;SharedModule -->
<g id="edge1" class="edge">
<title>AddRowComponent&#45;&gt;SharedModule</title>
<path fill="none" stroke="#000000" d="M599.7304,-122.2667C599.7304,-140.5552 599.7304,-166 599.7304,-166 599.7304,-166 374.2712,-166 374.2712,-166"/>
<polygon fill="#000000" stroke="#000000" points="374.2712,-162.5001 364.2712,-166 374.2712,-169.5001 374.2712,-162.5001"/>
</g>
<!-- StateDirective -->
<g id="node2" class="node">
<title>StateDirective</title>
<polygon fill="#ffffb3" stroke="#000000" points="492.0758,-122 395.9242,-122 395.9242,-86 492.0758,-86 492.0758,-122"/>
<text text-anchor="middle" x="444" y="-99.8" font-family="Times,serif" font-size="14.00" fill="#000000">StateDirective</text>
</g>
<!-- StateDirective&#45;&gt;SharedModule -->
<g id="edge2" class="edge">
<title>StateDirective&#45;&gt;SharedModule</title>
<path fill="none" stroke="#000000" d="M460.7626,-122.0091C460.7626,-138.0494 460.7626,-159 460.7626,-159 460.7626,-159 374.3486,-159 374.3486,-159"/>
<polygon fill="#000000" stroke="#000000" points="374.3486,-155.5001 364.3486,-159 374.3485,-162.5001 374.3486,-155.5001"/>
</g>
<!-- TableauComponent -->
<g id="node3" class="node">
<title>TableauComponent</title>
<polygon fill="#ffffb3" stroke="#000000" points="378.4201,-122 251.5799,-122 251.5799,-86 378.4201,-86 378.4201,-122"/>
<text text-anchor="middle" x="315" y="-99.8" font-family="Times,serif" font-size="14.00" fill="#000000">TableauComponent</text>
</g>
<!-- TableauComponent&#45;&gt;SharedModule -->
<g id="edge3" class="edge">
<title>TableauComponent&#45;&gt;SharedModule</title>
<path fill="none" stroke="#000000" d="M315,-122.1061C315,-122.1061 315,-140.991 315,-140.991"/>
<polygon fill="#000000" stroke="#000000" points="311.5001,-140.9909 315,-150.991 318.5001,-140.991 311.5001,-140.9909"/>
</g>
<!-- TotalPipe -->
<g id="node4" class="node">
<title>TotalPipe</title>
<polygon fill="#ffffb3" stroke="#000000" points="234.4376,-122 163.5624,-122 163.5624,-86 234.4376,-86 234.4376,-122"/>
<text text-anchor="middle" x="199" y="-99.8" font-family="Times,serif" font-size="14.00" fill="#000000">TotalPipe</text>
</g>
<!-- TotalPipe&#45;&gt;SharedModule -->
<g id="edge4" class="edge">
<title>TotalPipe&#45;&gt;SharedModule</title>
<path fill="none" stroke="#000000" d="M209.2333,-122.0091C209.2333,-138.0494 209.2333,-159 209.2333,-159 209.2333,-159 255.523,-159 255.523,-159"/>
<polygon fill="#000000" stroke="#000000" points="255.5231,-162.5001 265.523,-159 255.523,-155.5001 255.5231,-162.5001"/>
</g>
<!-- AddRowComponent  -->
<g id="node7" class="node">
<title>AddRowComponent </title>
<polygon fill="#fb8072" stroke="#000000" points="650.8827,-252 515.1173,-252 515.1173,-216 650.8827,-216 650.8827,-252"/>
<text text-anchor="middle" x="583" y="-229.8" font-family="Times,serif" font-size="14.00" fill="#000000">AddRowComponent </text>
</g>
<!-- SharedModule&#45;&gt;AddRowComponent  -->
<g id="edge6" class="edge">
<title>SharedModule&#45;&gt;AddRowComponent </title>
<path fill="none" stroke="#000000" stroke-dasharray="5,2" d="M364.3698,-173C435.2789,-173 557.5196,-173 557.5196,-173 557.5196,-173 557.5196,-205.698 557.5196,-205.698"/>
<polygon fill="#000000" stroke="#000000" points="554.0197,-205.698 557.5196,-215.698 561.0197,-205.698 554.0197,-205.698"/>
</g>
<!-- StateDirective  -->
<g id="node8" class="node">
<title>StateDirective </title>
<polygon fill="#fb8072" stroke="#000000" points="497.5767,-252 398.4233,-252 398.4233,-216 497.5767,-216 497.5767,-252"/>
<text text-anchor="middle" x="448" y="-229.8" font-family="Times,serif" font-size="14.00" fill="#000000">StateDirective </text>
</g>
<!-- SharedModule&#45;&gt;StateDirective  -->
<g id="edge7" class="edge">
<title>SharedModule&#45;&gt;StateDirective </title>
<path fill="none" stroke="#000000" stroke-dasharray="5,2" d="M364.2174,-180C395.2474,-180 429.4874,-180 429.4874,-180 429.4874,-180 429.4874,-205.7181 429.4874,-205.7181"/>
<polygon fill="#000000" stroke="#000000" points="425.9875,-205.718 429.4874,-215.7181 432.9875,-205.7181 425.9875,-205.718"/>
</g>
<!-- TableauComponent  -->
<g id="node9" class="node">
<title>TableauComponent </title>
<polygon fill="#fb8072" stroke="#000000" points="379.9194,-252 250.0806,-252 250.0806,-216 379.9194,-216 379.9194,-252"/>
<text text-anchor="middle" x="315" y="-229.8" font-family="Times,serif" font-size="14.00" fill="#000000">TableauComponent </text>
</g>
<!-- SharedModule&#45;&gt;TableauComponent  -->
<g id="edge8" class="edge">
<title>SharedModule&#45;&gt;TableauComponent </title>
<path fill="none" stroke="#000000" stroke-dasharray="5,2" d="M315,-187.1061C315,-187.1061 315,-205.991 315,-205.991"/>
<polygon fill="#000000" stroke="#000000" points="311.5001,-205.9909 315,-215.991 318.5001,-205.991 311.5001,-205.9909"/>
</g>
<!-- TemplateModule  -->
<g id="node10" class="node">
<title>TemplateModule </title>
<polygon fill="#fb8072" stroke="#000000" points="231.918,-252 116.082,-252 116.082,-216 231.918,-216 231.918,-252"/>
<text text-anchor="middle" x="174" y="-229.8" font-family="Times,serif" font-size="14.00" fill="#000000">TemplateModule </text>
</g>
<!-- SharedModule&#45;&gt;TemplateModule  -->
<g id="edge9" class="edge">
<title>SharedModule&#45;&gt;TemplateModule </title>
<path fill="none" stroke="#000000" stroke-dasharray="5,2" d="M265.689,-180C229.4534,-180 186.5076,-180 186.5076,-180 186.5076,-180 186.5076,-205.7181 186.5076,-205.7181"/>
<polygon fill="#000000" stroke="#000000" points="183.0077,-205.718 186.5076,-215.7181 190.0077,-205.7181 183.0077,-205.718"/>
</g>
<!-- TotalPipe  -->
<g id="node11" class="node">
<title>TotalPipe </title>
<polygon fill="#fb8072" stroke="#000000" points="97.9362,-252 24.0638,-252 24.0638,-216 97.9362,-216 97.9362,-252"/>
<text text-anchor="middle" x="61" y="-229.8" font-family="Times,serif" font-size="14.00" fill="#000000">TotalPipe </text>
</g>
<!-- SharedModule&#45;&gt;TotalPipe  -->
<g id="edge10" class="edge">
<title>SharedModule&#45;&gt;TotalPipe </title>
<path fill="none" stroke="#000000" stroke-dasharray="5,2" d="M265.4899,-173C192.0657,-173 62.8796,-173 62.8796,-173 62.8796,-173 62.8796,-205.698 62.8796,-205.698"/>
<polygon fill="#000000" stroke="#000000" points="59.3796,-205.698 62.8796,-215.698 66.3796,-205.698 59.3796,-205.698"/>
</g>
<!-- TemplateModule -->
<g id="node6" class="node">
<title>TemplateModule</title>
<polygon fill="#8dd3c7" stroke="#000000" points="140.4188,-122 137.4188,-126 116.4188,-126 113.4188,-122 27.5812,-122 27.5812,-86 140.4188,-86 140.4188,-122"/>
<text text-anchor="middle" x="84" y="-99.8" font-family="Times,serif" font-size="14.00" fill="#000000">TemplateModule</text>
</g>
<!-- TemplateModule&#45;&gt;SharedModule -->
<g id="edge5" class="edge">
<title>TemplateModule&#45;&gt;SharedModule</title>
<path fill="none" stroke="#000000" d="M128.125,-122.2667C128.125,-140.5552 128.125,-166 128.125,-166 128.125,-166 255.4116,-166 255.4116,-166"/>
<polygon fill="#000000" stroke="#000000" points="255.4116,-169.5001 265.4116,-166 255.4115,-162.5001 255.4116,-169.5001"/>
</g>
</g>
</svg>
