<?xml version="1.0" encoding="UTF-8" standalone="no"?>
<!DOCTYPE svg PUBLIC "-//W3C//DTD SVG 1.1//EN"
 "http://www.w3.org/Graphics/SVG/1.1/DTD/svg11.dtd">
<!-- Generated by graphviz version 2.40.1 (20161225.0304)
 -->
<!-- Title: dependencies Pages: 1 -->
<svg width="1678pt" height="211pt"
 viewBox="0.00 0.00 1678.00 211.00" xmlns="http://www.w3.org/2000/svg" xmlns:xlink="http://www.w3.org/1999/xlink">
<g id="graph0" class="graph" transform="scale(1 1) rotate(0) translate(4 207)">
<title>dependencies</title>
<polygon fill="#ffffff" stroke="transparent" points="-4,4 -4,-207 1674,-207 1674,4 -4,4"/>
<text text-anchor="start" x="814.0091" y="-42.4" font-family="sans-serif" font-weight="bold" font-size="14.00" fill="#000000">Legend</text>
<polygon fill="#ffffb3" stroke="transparent" points="601,-10 601,-30 621,-30 621,-10 601,-10"/>
<text text-anchor="start" x="624.629" y="-15.4" font-family="sans-serif" font-size="14.00" fill="#000000"> &#160;Declarations</text>
<polygon fill="#8dd3c7" stroke="transparent" points="714,-10 714,-30 734,-30 734,-10 714,-10"/>
<text text-anchor="start" x="737.7251" y="-15.4" font-family="sans-serif" font-size="14.00" fill="#000000"> &#160;Module</text>
<polygon fill="#80b1d3" stroke="transparent" points="800,-10 800,-30 820,-30 820,-10 800,-10"/>
<text text-anchor="start" x="823.7812" y="-15.4" font-family="sans-serif" font-size="14.00" fill="#000000"> &#160;Bootstrap</text>
<polygon fill="#fdb462" stroke="transparent" points="897,-10 897,-30 917,-30 917,-10 897,-10"/>
<text text-anchor="start" x="920.6732" y="-15.4" font-family="sans-serif" font-size="14.00" fill="#000000"> &#160;Providers</text>
<polygon fill="#fb8072" stroke="transparent" points="993,-10 993,-30 1013,-30 1013,-10 993,-10"/>
<text text-anchor="start" x="1016.7258" y="-15.4" font-family="sans-serif" font-size="14.00" fill="#000000"> &#160;Exports</text>
<g id="clust1" class="cluster">
<title>cluster_PrestationsModule</title>
<polygon fill="none" stroke="#000000" stroke-dasharray="1,5" points="8,-70 8,-195 1662,-195 1662,-70 8,-70"/>
</g>
<g id="clust2" class="cluster">
<title>cluster_PrestationsModule_declarations</title>
<polygon fill="none" stroke="#000000" points="322,-78 322,-130 1654,-130 1654,-78 322,-78"/>
</g>
<g id="clust10" class="cluster">
<title>cluster_PrestationsModule_imports</title>
<polygon fill="none" stroke="#000000" points="16,-78 16,-130 314,-130 314,-78 16,-78"/>
</g>
<!-- AddPrestationComponent -->
<g id="node1" class="node">
<title>AddPrestationComponent</title>
<polygon fill="#ffffb3" stroke="#000000" points="1645.9284,-122 1484.0716,-122 1484.0716,-86 1645.9284,-86 1645.9284,-122"/>
<text text-anchor="middle" x="1565" y="-99.8" font-family="Times,serif" font-size="14.00" fill="#000000">AddPrestationComponent</text>
</g>
<!-- PrestationsModule -->
<g id="node8" class="node">
<title>PrestationsModule</title>
<polygon fill="#8dd3c7" stroke="#000000" points="828.4832,-187 825.4832,-191 804.4832,-191 801.4832,-187 707.5168,-187 707.5168,-151 828.4832,-151 828.4832,-187"/>
<text text-anchor="middle" x="768" y="-164.8" font-family="Times,serif" font-size="14.00" fill="#000000">PrestationsModule</text>
</g>
<!-- AddPrestationComponent&#45;&gt;PrestationsModule -->
<g id="edge1" class="edge">
<title>AddPrestationComponent&#45;&gt;PrestationsModule</title>
<path fill="none" stroke="#000000" d="M1565,-122.0109C1565,-144.4852 1565,-180 1565,-180 1565,-180 838.5587,-180 838.5587,-180"/>
<polygon fill="#000000" stroke="#000000" points="838.5587,-176.5001 828.5587,-180 838.5587,-183.5001 838.5587,-176.5001"/>
</g>
<!-- FormPrestationComponent -->
<g id="node2" class="node">
<title>FormPrestationComponent</title>
<polygon fill="#ffffb3" stroke="#000000" points="1465.6554,-122 1298.3446,-122 1298.3446,-86 1465.6554,-86 1465.6554,-122"/>
<text text-anchor="middle" x="1382" y="-99.8" font-family="Times,serif" font-size="14.00" fill="#000000">FormPrestationComponent</text>
</g>
<!-- FormPrestationComponent&#45;&gt;PrestationsModule -->
<g id="edge2" class="edge">
<title>FormPrestationComponent&#45;&gt;PrestationsModule</title>
<path fill="none" stroke="#000000" d="M1382,-122.1289C1382,-142.5724 1382,-173 1382,-173 1382,-173 838.5531,-173 838.5531,-173"/>
<polygon fill="#000000" stroke="#000000" points="838.5531,-169.5001 828.5531,-173 838.553,-176.5001 838.5531,-169.5001"/>
</g>
<!-- FormReactivePrestationComponent -->
<g id="node3" class="node">
<title>FormReactivePrestationComponent</title>
<polygon fill="#ffffb3" stroke="#000000" points="1280.1315,-122 1063.8685,-122 1063.8685,-86 1280.1315,-86 1280.1315,-122"/>
<text text-anchor="middle" x="1172" y="-99.8" font-family="Times,serif" font-size="14.00" fill="#000000">FormReactivePrestationComponent</text>
</g>
<!-- FormReactivePrestationComponent&#45;&gt;PrestationsModule -->
<g id="edge3" class="edge">
<title>FormReactivePrestationComponent&#45;&gt;PrestationsModule</title>
<path fill="none" stroke="#000000" d="M1172,-122.2667C1172,-140.5552 1172,-166 1172,-166 1172,-166 838.9203,-166 838.9203,-166"/>
<polygon fill="#000000" stroke="#000000" points="838.9203,-162.5001 828.9203,-166 838.9203,-169.5001 838.9203,-162.5001"/>
</g>
<!-- ListPrestationsComponent -->
<g id="node4" class="node">
<title>ListPrestationsComponent</title>
<polygon fill="#ffffb3" stroke="#000000" points="1045.0448,-122 880.9552,-122 880.9552,-86 1045.0448,-86 1045.0448,-122"/>
<text text-anchor="middle" x="963" y="-99.8" font-family="Times,serif" font-size="14.00" fill="#000000">ListPrestationsComponent</text>
</g>
<!-- ListPrestationsComponent&#45;&gt;PrestationsModule -->
<g id="edge4" class="edge">
<title>ListPrestationsComponent&#45;&gt;PrestationsModule</title>
<path fill="none" stroke="#000000" d="M963,-122.0091C963,-138.0494 963,-159 963,-159 963,-159 838.6303,-159 838.6303,-159"/>
<polygon fill="#000000" stroke="#000000" points="838.6303,-155.5001 828.6303,-159 838.6303,-162.5001 838.6303,-155.5001"/>
</g>
<!-- PageAddPrestationComponent -->
<g id="node5" class="node">
<title>PageAddPrestationComponent</title>
<polygon fill="#ffffb3" stroke="#000000" points="862.1399,-122 673.8601,-122 673.8601,-86 862.1399,-86 862.1399,-122"/>
<text text-anchor="middle" x="768" y="-99.8" font-family="Times,serif" font-size="14.00" fill="#000000">PageAddPrestationComponent</text>
</g>
<!-- PageAddPrestationComponent&#45;&gt;PrestationsModule -->
<g id="edge5" class="edge">
<title>PageAddPrestationComponent&#45;&gt;PrestationsModule</title>
<path fill="none" stroke="#000000" d="M768,-122.1061C768,-122.1061 768,-140.991 768,-140.991"/>
<polygon fill="#000000" stroke="#000000" points="764.5001,-140.9909 768,-150.991 771.5001,-140.991 764.5001,-140.9909"/>
</g>
<!-- PagePrestationsComponent -->
<g id="node6" class="node">
<title>PagePrestationsComponent</title>
<polygon fill="#ffffb3" stroke="#000000" points="655.9776,-122 486.0224,-122 486.0224,-86 655.9776,-86 655.9776,-122"/>
<text text-anchor="middle" x="571" y="-99.8" font-family="Times,serif" font-size="14.00" fill="#000000">PagePrestationsComponent</text>
</g>
<!-- PagePrestationsComponent&#45;&gt;PrestationsModule -->
<g id="edge6" class="edge">
<title>PagePrestationsComponent&#45;&gt;PrestationsModule</title>
<path fill="none" stroke="#000000" d="M571,-122.0091C571,-138.0494 571,-159 571,-159 571,-159 697.286,-159 697.286,-159"/>
<polygon fill="#000000" stroke="#000000" points="697.2861,-162.5001 707.286,-159 697.286,-155.5001 697.2861,-162.5001"/>
</g>
<!-- PrestationComponent -->
<g id="node7" class="node">
<title>PrestationComponent</title>
<polygon fill="#ffffb3" stroke="#000000" points="467.8216,-122 330.1784,-122 330.1784,-86 467.8216,-86 467.8216,-122"/>
<text text-anchor="middle" x="399" y="-99.8" font-family="Times,serif" font-size="14.00" fill="#000000">PrestationComponent</text>
</g>
<!-- PrestationComponent&#45;&gt;PrestationsModule -->
<g id="edge7" class="edge">
<title>PrestationComponent&#45;&gt;PrestationsModule</title>
<path fill="none" stroke="#000000" d="M399,-122.2667C399,-140.5552 399,-166 399,-166 399,-166 697.4804,-166 697.4804,-166"/>
<polygon fill="#000000" stroke="#000000" points="697.4804,-169.5001 707.4804,-166 697.4803,-162.5001 697.4804,-169.5001"/>
</g>
<!-- PrestationsRoutingModule -->
<g id="node9" class="node">
<title>PrestationsRoutingModule</title>
<polygon fill="#8dd3c7" stroke="#000000" points="306.101,-122 303.101,-126 282.101,-126 279.101,-122 139.899,-122 139.899,-86 306.101,-86 306.101,-122"/>
<text text-anchor="middle" x="223" y="-99.8" font-family="Times,serif" font-size="14.00" fill="#000000">PrestationsRoutingModule</text>
</g>
<!-- PrestationsRoutingModule&#45;&gt;PrestationsModule -->
<g id="edge8" class="edge">
<title>PrestationsRoutingModule&#45;&gt;PrestationsModule</title>
<path fill="none" stroke="#000000" d="M223,-122.1289C223,-142.5724 223,-173 223,-173 223,-173 697.3308,-173 697.3308,-173"/>
<polygon fill="#000000" stroke="#000000" points="697.3308,-176.5001 707.3308,-173 697.3307,-169.5001 697.3308,-176.5001"/>
</g>
<!-- SharedModule -->
<g id="node10" class="node">
<title>SharedModule</title>
<polygon fill="#8dd3c7" stroke="#000000" points="122.4231,-122 119.4231,-126 98.4231,-126 95.4231,-122 23.5769,-122 23.5769,-86 122.4231,-86 122.4231,-122"/>
<text text-anchor="middle" x="73" y="-99.8" font-family="Times,serif" font-size="14.00" fill="#000000">SharedModule</text>
</g>
<!-- SharedModule&#45;&gt;PrestationsModule -->
<g id="edge9" class="edge">
<title>SharedModule&#45;&gt;PrestationsModule</title>
<path fill="none" stroke="#000000" d="M73,-122.0109C73,-144.4852 73,-180 73,-180 73,-180 697.2361,-180 697.2361,-180"/>
<polygon fill="#000000" stroke="#000000" points="697.2362,-183.5001 707.2361,-180 697.2361,-176.5001 697.2362,-183.5001"/>
</g>
</g>
</svg>
